<?xml version="1.0" encoding="utf-8"?>
<!-- Generator: Adobe Illustrator 16.0.0, SVG Export Plug-In . SVG Version: 6.00 Build 0)  -->
<!DOCTYPE svg PUBLIC "-//W3C//DTD SVG 1.1//EN" "http://www.w3.org/Graphics/SVG/1.1/DTD/svg11.dtd">
<svg version="1.1" id="Layer_1" xmlns="http://www.w3.org/2000/svg" xmlns:xlink="http://www.w3.org/1999/xlink" x="0px" y="0px"
	 width="500px" height="500px" viewBox="0 0 500 500" enable-background="new 0 0 500 500" xml:space="preserve">
<path fill="#4D6FA9" d="M466.518,500H35.483C16.518,500,1,484.482,1,465.518V34.482C1,15.518,16.518,0,35.483,0h431.035
	C485.483,0,501,15.518,501,34.482v431.035C501,484.482,485.483,500,466.518,500"/>
<path fill="#FFFFFF" d="M422.414,86.207v86.207h-77.586c-9.482,0-17.242,7.759-17.242,17.241v51.725h86.207v86.207h-86.207V500
	H241.38V327.586h-68.966v-86.207h68.966v-51.725c0-54.311,41.379-99.138,94.827-103.448L422.414,86.207L422.414,86.207z"/>
</svg>
