<?xml version="1.0" encoding="UTF-8" standalone="no"?>
<!-- Created with Inkscape (http://www.inkscape.org/) -->
<svg
   xmlns:svg="http://www.w3.org/2000/svg"
   xmlns="http://www.w3.org/2000/svg"
   version="1.0"
   width="602.36218"
   height="140.35039"
   id="svg3009">
  <defs
     id="defs3011" />
  <g
     id="layer1">
    <g
       transform="translate(-48.81892,-462.187)"
       id="g3019">
      <rect
         width="566.92914"
         height="104.92654"
         x="66.535439"
         y="479.89893"
         style="fill:#df0000;fill-rule:evenodd"
         id="_86959064" />
      <path
         d="M 588.42558,562.51573 C 585.19267,557.32336 576.01657,542.19025 575.18106,540.85726 C 576.2685,539.5721 587.75519,525.58844 590.06968,522.85301 L 589.05558,528.2686 C 588.9748,528.67891 589.08818,529.1034 589.35535,529.42584 C 589.61614,529.74403 590.0144,529.93077 590.43216,529.93077 C 590.43251,529.93077 592.85259,529.93077 594.39747,529.93077 C 593.99425,532.40966 589.62606,555.19242 588.42558,562.51573 z M 279.79008,518.75943 L 287.83091,518.75943 C 288.51264,518.75943 289.09445,518.0784 289.21528,517.40801 L 290.96177,508.03455 C 291.03477,507.62033 290.92528,507.19939 290.66201,506.88084 C 290.39449,506.56266 290.0026,506.3575 289.58449,506.35395 L 281.48555,506.3614 C 280.80807,506.3575 280.22591,506.89183 280.09374,507.55478 L 278.40677,516.88856 C 278.32599,517.30206 278.43547,517.92108 278.70264,518.24671 C 278.9698,518.56915 279.36914,518.75943 279.79008,518.75943 z M 262.26595,541.27856 C 262.2291,542.67356 262.09303,543.38399 261.82232,544.40907 C 260.31429,550.1797 255.02236,555.48899 249.73965,556.77805 C 245.66378,557.56891 242.49642,557.04167 240.43882,555.70868 C 238.26359,554.21482 236.83953,551.75789 236.31937,549.26057 C 236.09614,548.25356 236.07347,547.56899 236.07347,546.73773 C 236.07382,541.53474 239.01051,536.51104 244.12918,532.6662 C 247.07366,530.61179 251.07547,529.82836 254.58016,530.63766 C 256.55733,531.0951 258.99618,532.41356 260.82311,535.39065 C 261.81878,537.00533 262.3237,539.11785 262.26595,541.27856 z M 83.208117,565.27206 L 83.208117,565.19198 C 83.217684,564.95671 83.306975,564.7271 83.468195,564.54427 L 141.8052,497.31675 C 142.00682,497.08608 142.29595,496.92486 142.59997,496.92486 L 151.7906,496.91459 C 152.10914,496.91459 152.40926,497.05313 152.60697,497.30258 C 152.76075,497.48931 152.84508,497.75612 152.84508,497.99423 C 152.84508,498.06368 152.83764,498.14057 152.82312,498.21002 C 152.82312,498.21002 146.56882,534.2334 145.21067,540.75486 C 149.81343,535.55895 179.21225,497.30896 179.21225,497.30896 C 179.41386,497.08254 179.69981,496.92486 179.99957,496.92486 L 189.4726,496.92486 C 189.79398,496.92486 190.09906,497.07191 190.29961,497.33163 C 190.49733,497.58392 190.57067,497.94285 190.49343,498.25785 L 183.58044,536.02773 C 183.65059,535.89592 183.71615,535.75667 183.78949,535.62486 C 188.22394,527.00895 197.34867,520.95982 206.45532,519.83978 C 206.48827,519.83588 206.52087,519.83234 206.55737,519.83234 C 214.78847,519.41848 221.15225,522.53092 224.96095,528.83234 C 224.98256,528.86529 225.00134,528.89825 225.01906,528.9351 C 226.38571,531.68506 227.41044,535.37577 227.59044,539.18376 C 229.14985,534.64372 231.90689,530.44703 235.75599,526.91045 C 242.25831,520.85742 250.19709,518.47738 258.10185,520.2058 C 258.19008,520.23132 258.28575,520.25683 258.36618,520.29722 L 259.10213,520.61222 C 260.85607,521.36269 262.76343,522.2014 264.38236,523.65486 C 265.23559,519.62329 267.7439,507.49277 267.7439,507.49277 C 267.8789,506.84045 268.45717,506.3614 269.12012,506.3614 L 276.39559,506.3614 C 276.81299,506.3614 277.21232,506.55947 277.47949,506.88049 C 277.74666,507.20329 277.85721,507.62777 277.78032,508.03844 L 267.17555,565.43399 C 267.05118,566.10439 266.46512,566.36057 265.78835,566.35702 L 258.5678,566.36801 C 258.14614,566.36057 257.75036,566.38962 257.48319,566.06754 C 257.27166,565.8149 257.15792,565.4999 257.15792,565.17073 C 257.15792,565.08639 257.16465,565.00206 257.18343,564.91419 C 257.18343,564.91419 257.36236,563.95856 257.48319,563.32147 C 251.59918,566.95761 245.63862,568.36324 240.065,567.35269 C 233.68351,566.08596 227.74422,559.85399 226.54587,553.16033 C 226.22095,551.36954 226.07107,549.57947 226.09233,547.81065 C 225.83933,548.03777 225.50272,548.18057 225.14378,548.18057 C 225.14378,548.18057 193.22603,548.1951 191.64394,548.1951 C 191.61453,548.31947 191.58867,548.45128 191.58867,548.60187 C 191.58867,549.11813 191.76477,549.7662 191.99154,550.5351 C 191.99154,550.5351 192.09111,550.87915 192.13788,551.03293 C 193.7313,554.93624 197.54638,557.38927 201.87063,557.28332 C 206.18071,557.18447 210.16055,555.12651 213.70492,551.16474 C 213.96819,550.86462 214.3537,550.69596 214.75197,550.69596 L 222.21807,550.69596 C 222.70563,550.69596 223.15174,550.94506 223.41252,551.35147 C 223.66835,551.75789 223.6974,552.27061 223.49296,552.70998 C 219.25622,561.626 209.74351,567.61277 199.7613,567.61277 C 192.82315,567.34206 186.99335,563.96954 183.753,558.31584 C 182.13406,555.30262 181.36906,551.56017 181.41335,547.74474 L 178.07697,565.54029 C 177.96359,566.01616 177.53874,566.36057 177.0565,566.36057 L 168.33784,566.36801 C 168.01504,566.36801 167.71138,566.21777 167.51012,565.96513 C 167.36378,565.77486 167.28689,565.54773 167.28689,565.31317 C 167.28689,565.22919 167.29363,565.1484 167.31595,565.06443 C 171.00276,549.70029 173.89906,527.41927 175.78162,518.7775 C 171.25965,524.07262 140.50162,565.96513 140.50162,565.96513 C 140.3039,566.19935 140.01477,566.35702 139.71075,566.36057 L 130.71784,566.36057 C 130.3954,566.36801 130.09528,566.20324 129.89048,565.95415 C 129.74024,565.76742 129.65591,565.52931 129.65591,565.28765 C 129.65591,565.21821 129.66335,565.14486 129.68142,565.06797 C 133.05394,549.521 136.51079,527.45222 138.1765,518.83632 C 133.8193,524.04321 96.807329,565.96868 96.807329,565.96868 C 96.598983,566.21777 96.291069,566.35702 95.965085,566.36057 C 93.259416,566.38608 84.255518,566.37155 84.255518,566.37155 C 83.84166,566.37155 83.471739,566.04202 83.303432,565.66856 C 83.243904,565.54206 83.213077,565.40636 83.208117,565.27206 L 83.208117,565.27206 z M 194.82264,537.78521 C 197.00461,533.63671 201.62863,531.10254 205.6237,530.54978 C 209.9554,530.24612 211.91095,531.28962 213.80059,532.91529 C 215.51768,534.63628 216.33796,536.24388 216.50272,537.79974 C 214.19603,537.82171 198.17248,537.7558 194.82264,537.78521 L 194.82264,537.78521 z M 523.80842,544.40907 C 522.04811,550.08828 516.76362,555.5588 511.47984,556.84006 C 507.44189,557.51045 504.47862,556.99419 502.42102,555.6612 C 500.24614,554.16734 498.93122,551.64061 498.30866,549.22762 C 498.16657,548.38927 498.08933,547.55801 498.08933,546.72321 C 498.08933,541.51986 500.87614,536.51104 505.99161,532.6662 C 508.93893,530.61179 512.93756,529.82836 516.44507,530.63766 C 518.42224,531.09191 521.1357,532.27466 522.82763,535.32828 C 523.77157,536.98691 524.23007,539.09624 524.23007,541.14675 C 524.23043,542.27423 524.12307,543.39108 523.80842,544.40907 z M 319.54421,544.40907 C 317.90756,550.11769 312.94232,555.40147 307.65925,556.69017 C 303.71201,557.4371 300.21441,556.99419 298.15717,555.6612 C 295.98228,554.16734 294.77685,551.70332 294.0852,549.22762 C 293.81803,548.09269 293.82547,547.55801 293.82547,546.72321 C 293.82547,541.51986 296.61122,536.51104 301.73059,532.6662 C 304.67473,530.61179 308.67725,529.82836 312.18122,530.63766 C 314.15803,531.09191 316.87185,532.27466 318.56272,535.32828 C 319.50772,536.98691 320.00661,539.09624 320.00661,541.14675 C 320.00661,542.27423 319.85567,543.39108 319.54421,544.40907 z M 537.11566,521.44703 C 537.12275,521.1136 537.01574,520.78797 536.79641,520.52435 C 536.52925,520.20226 536.12992,520.06655 535.71287,520.06655 L 528.44094,520.06655 C 527.77444,520.06655 527.19972,520.48041 527.05976,521.13203 L 526.50311,523.89297 C 524.88523,522.43561 523.27019,521.50903 520.96704,520.61222 L 520.23145,520.29368 C 520.14712,520.25683 520.05606,520.22777 519.96393,520.2058 C 512.05811,518.47738 504.12322,520.85742 497.62055,526.91045 C 494.36885,529.89781 491.94842,533.35466 490.31567,537.08931 L 497.555,498.24651 C 497.63224,497.93151 497.55889,497.5623 497.35728,497.30896 C 497.15956,497.05313 496.852,496.90714 496.52956,496.90714 L 486.81559,496.91742 C 486.51086,496.91742 486.22598,497.08608 486.02826,497.30896 C 486.02826,497.30896 456.84842,535.63195 452.24602,540.82821 C 453.90783,534.43466 459.96051,498.27273 459.96051,498.27273 C 459.97929,498.19974 459.98319,498.12923 459.98319,498.05624 C 459.98319,497.81459 459.9024,497.49675 459.74897,497.30647 C 459.54701,497.06447 459.24653,496.91742 458.93224,496.91742 L 448.73106,496.91742 C 448.4274,496.91742 448.13366,497.08608 447.93594,497.31321 L 399.0422,553.77935 C 398.21874,545.55498 394.30764,536.60246 394.30764,536.60246 C 387.89957,523.4575 373.77736,519.01206 365.42154,526.06431 C 364.95276,526.22517 364.50559,526.43033 364.08819,526.69041 C 370.41937,517.94269 385.0472,518.66057 394.56063,529.60903 C 394.56098,529.60903 398.91394,534.83754 402.01185,542.61828 C 402.83957,539.87612 403.34094,537.0273 403.48728,534.12356 C 398.3874,527.21766 392.63803,523.17155 392.63803,523.17155 C 380.69815,515.1123 366.49374,518.10746 362.53232,528.03439 C 362.11457,528.52514 361.77016,529.08498 361.51823,529.68947 C 362.62303,518.9536 375.64823,512.25994 389.35728,516.98352 C 389.35728,516.98352 395.99957,519.42238 402.71094,524.82663 C 402.61563,524.39435 402.52846,523.96242 402.41756,523.53793 C 401.69331,520.68557 400.63102,517.97565 399.28031,515.44573 C 391.45882,512.05478 384.51677,511.43258 384.51677,511.43258 C 369.73055,510.39616 358.72752,520.68557 361.03457,531.60817 C 361.0165,531.80907 361.00905,532.01813 361.00905,532.22328 C 361.00905,532.54891 361.03067,532.8749 361.0785,533.186 C 356.12071,523.2449 364.08465,510.53187 378.58492,507.716 C 378.58492,507.716 385.37709,506.52935 393.74425,507.78155 C 391.62394,505.54112 389.2035,503.57458 386.51626,501.91915 C 378.12004,502.90809 371.87602,505.80474 371.87602,505.80474 C 358.54858,512.29644 354.16516,526.72691 361.63905,535.02817 C 361.87646,535.5299 362.17693,535.98734 362.52488,536.40474 C 353.18756,530.31203 353.70417,515.26254 364.87976,505.5514 C 364.87976,505.5514 370.14087,501.16195 377.96909,498.06014 C 374.73618,497.08998 371.38953,496.59604 368.01311,496.57336 C 361.47429,501.54994 357.64752,506.96872 357.64752,506.96872 C 349.29949,519.34903 352.82118,534.15297 363.62366,537.47021 L 363.6676,537.51061 L 363.81004,537.57651 C 364.12894,537.79265 364.4652,537.98293 364.82449,538.14415 C 353.70417,537.51061 346.64768,524.23348 351.46303,510.24592 C 351.46303,510.24592 353.70063,504.16029 358.63291,497.75612 C 355.81315,498.49561 353.13618,499.55399 350.63142,500.9086 C 347.44598,508.50687 346.84894,515.13073 346.84894,515.13073 C 345.82386,529.79187 355.93398,540.73998 366.75807,538.66395 C 366.9774,538.68592 367.19673,538.70045 367.42102,538.70045 C 367.80122,538.70045 368.17433,538.66395 368.53716,538.59805 C 358.60705,543.49384 345.94079,535.5299 343.13236,521.06258 C 343.13272,521.06258 341.99461,514.51561 343.13236,506.3575 C 340.75622,508.60927 338.66957,511.20155 336.94858,514.09077 C 338.01724,522.13159 340.74595,528.03439 340.74595,528.03439 C 347.29256,541.45395 361.8761,545.80797 370.14831,538.1073 L 370.20677,538.09667 L 370.37579,537.97549 C 370.74216,537.77777 371.08587,537.55454 371.41114,537.29092 C 365.34819,546.72675 350.23669,546.24344 340.4965,535.02817 C 340.4965,535.02781 335.73642,528.70053 333.11472,521.39955 C 333.03039,521.12458 332.84402,520.69266 332.59811,520.4549 C 332.29835,520.16931 331.86961,520.05557 331.44902,520.05557 L 324.17673,520.05557 C 323.51024,520.05557 322.97484,520.40706 322.63079,521.13203 C 322.63114,521.13203 322.23925,521.98171 321.98343,523.65486 C 320.36449,522.2014 318.5085,521.37722 316.75457,520.62321 C 316.75457,520.62285 315.81347,520.30077 315.72169,520.27525 C 307.85697,518.36399 299.85937,520.85742 293.35669,526.91045 C 289.50795,530.44703 286.83914,534.64372 285.27547,539.18376 C 285.27547,539.18376 285.2202,539.28651 285.13587,539.47325 L 288.45701,521.66281 C 288.52646,521.24931 288.41272,520.84289 288.14201,520.52435 C 287.8752,520.2058 287.47941,520.02262 287.06591,520.02616 L 278.99638,520.02616 C 278.31465,520.0336 277.73248,520.5208 277.61166,521.19084 L 269.59244,564.91419 C 269.51945,565.32415 269.62894,565.74545 269.8961,566.06399 C 270.16433,566.38962 270.55941,566.36057 270.97681,566.36411 L 279.03252,566.35702 C 279.72099,566.36057 280.31024,566.09305 280.42362,565.41592 L 283.63528,547.62037 C 283.66788,547.7412 283.82166,551.36954 284.1441,553.16033 C 285.34492,559.85399 291.28421,566.08596 297.66571,567.35269 C 303.23933,568.3597 309.20024,566.95761 315.08532,563.32147 C 314.96413,563.95856 314.78024,564.91419 314.78024,564.91419 C 314.76642,565.00206 314.75898,565.08639 314.75898,565.17073 C 314.75898,565.4999 314.82063,565.66856 315.03004,565.9212 C 315.30075,566.24328 315.74791,566.3425 316.16886,566.3425 L 323.38941,566.35702 C 324.06724,566.36057 324.65295,566.10439 324.77697,565.43399 L 331.11134,531.0221 C 335.87921,536.67191 342.09665,541.49435 342.09665,541.49435 C 354.1035,549.59399 368.39472,546.52159 372.26508,536.46675 C 372.64563,536.02029 372.96453,535.5299 373.21291,534.99521 C 372.08898,545.71974 359.07547,552.39888 345.3735,547.67884 C 345.37386,547.67884 339.28079,545.43805 332.87661,540.50187 C 332.92799,540.73998 332.97476,540.97809 333.03784,541.2162 C 333.79256,544.17486 334.89772,546.9723 336.32248,549.57947 C 343.78504,552.64762 350.22181,553.22624 350.22181,553.22624 C 364.89358,554.25876 375.84594,544.12702 373.74795,533.28876 C 373.80252,532.9447 373.83157,532.58577 373.83157,532.22328 C 373.83157,532.08758 373.82768,531.95577 373.82094,531.82395 C 378.4276,541.71049 370.48138,554.1638 356.14976,556.94281 C 356.14976,556.94281 349.74559,558.06321 341.71965,556.98321 C 343.63764,559.00431 345.80579,560.82061 348.19717,562.36939 C 356.51614,561.36592 362.6861,558.49903 362.6861,558.49903 C 375.74,552.1388 380.21413,538.16612 373.36279,529.79187 C 373.12468,529.19128 372.79587,528.63852 372.39653,528.14069 C 381.36039,534.39073 380.70807,549.16951 369.68378,558.75876 C 369.68378,558.75876 364.31886,563.22226 356.37264,566.33116 C 359.48968,567.37821 362.7226,568.00076 365.99591,568.151 C 372.87665,563.0575 376.91177,557.3347 376.91177,557.3347 C 385.24527,544.9838 381.75228,530.21671 371.00898,526.85907 C 370.59122,526.57348 370.14087,526.33147 369.6611,526.15608 C 380.82535,526.74179 387.92614,540.04088 383.09555,554.06494 C 383.0959,554.06494 380.67157,560.67037 375.28929,567.36013 C 375.71768,567.26482 376.13827,567.17695 376.56665,567.0671 C 379.29571,566.37155 381.86213,565.36809 384.25315,564.12687 C 387.58882,556.36419 388.20039,549.50612 388.20039,549.50612 C 389.21768,535.04978 379.4052,524.21187 368.7565,525.88856 C 368.32846,525.79679 367.87811,525.74931 367.42102,525.74931 C 367.31791,525.74931 367.21905,525.75321 367.11984,525.75675 C 376.95216,521.46899 389.1709,529.39643 391.92016,543.57427 C 391.92016,543.57427 393.57559,550.30407 392.34464,558.27545 C 392.10405,559.42525 391.62394,561.09521 390.69382,562.87466 C 390.40823,563.37604 390.06063,563.95112 389.63579,564.63214 C 389.63968,564.6286 389.64323,564.6247 389.64961,564.61761 C 389.63579,564.63604 389.62445,564.65411 389.60957,564.67608 C 389.60283,564.68706 389.60957,564.6945 389.60673,564.70903 C 389.43417,564.99852 389.40157,565.42655 389.54401,565.74155 C 389.71657,566.11891 390.08579,566.36057 390.5,566.36057 L 401.9789,566.36057 C 402.30453,566.37155 402.61279,566.2362 402.82079,565.9871 C 402.82079,565.9871 440.65622,525.32482 445.01413,520.12147 C 443.34842,528.73738 440.01594,549.521 436.91059,565.08639 C 436.90031,565.16328 436.88897,565.23663 436.88897,565.30608 C 436.88897,565.54384 436.96941,565.78584 437.12319,565.97258 C 437.3287,566.22132 437.62846,566.36411 437.9509,566.36057 L 446.94346,566.36057 C 447.25173,566.35702 447.53661,566.22521 447.73433,565.99065 C 447.73433,565.99065 478.19933,525.43077 482.72484,520.13636 C 480.8437,528.77742 477.6611,549.72935 474.55929,565.046 C 474.54157,565.12289 474.53023,565.21076 474.53023,565.28765 C 474.53023,565.52222 474.60712,565.75643 474.757,565.93962 C 474.95508,566.1958 475.25945,566.37155 475.58118,566.37155 L 484.44228,566.37155 C 484.92984,566.37155 485.35043,566.01261 485.46382,565.54029 L 488.73429,546.62045 C 488.74492,547.2834 488.71941,547.8071 488.71941,547.8071 C 488.69708,549.57947 488.08551,551.36954 488.4083,553.16033 C 489.60559,559.85399 495.54807,566.08596 501.93098,567.35269 C 507.50354,568.3597 513.46444,566.95761 519.34527,563.32147 C 519.22834,563.95856 519.04444,564.91419 519.04444,564.91419 C 519.03063,565.00206 519.02283,565.08639 519.02283,565.17073 C 519.02318,565.4999 519.13622,565.81136 519.34527,566.06399 C 519.61244,566.38962 520.01177,566.36057 520.42917,566.36411 L 527.64972,566.36411 C 528.3311,566.37155 528.91681,566.10439 529.04153,565.43399 L 535.56334,530.79143 L 537.11566,521.44703 L 537.11566,521.44703 z M 616.45846,520.55376 C 616.19165,520.23876 615.8033,520.05557 615.39405,520.05557 C 615.39405,520.05557 609.57806,520.05203 607.21326,520.05203 C 607.64944,517.53663 609.47637,508.00549 609.47637,508.00549 C 609.49515,507.9286 609.49869,507.84427 609.49869,507.76738 C 609.49869,507.4375 609.38141,507.11506 609.17236,506.86277 C 608.90519,506.55167 608.50976,506.36813 608.09909,506.36813 L 599.99271,506.36813 C 599.31523,506.36813 598.72917,506.85144 598.61188,507.52927 C 598.61188,507.52927 596.61629,518.18081 596.29102,520.08498 C 595.57669,520.1034 594.31314,520.08852 594.31314,520.08852 L 593.0946,520.09206 L 591.79066,520.08498 C 591.28929,520.07399 590.83468,520.28624 590.5824,520.69266 C 590.3294,520.30466 589.90066,520.08498 589.43224,520.08498 L 580.11015,520.08498 C 579.72181,520.08498 579.34763,520.22033 579.08082,520.50947 C 579.08082,520.50947 572.52677,528.79584 568.68511,532.96632 C 569.81401,526.36088 573.26625,508.00195 573.26625,508.00195 C 573.28114,507.92116 573.28503,507.84427 573.28503,507.76738 C 573.28503,507.4375 573.17165,507.11506 572.9548,506.86277 C 572.69153,506.55167 572.29964,506.36813 571.88933,506.3614 L 563.91866,506.35006 C 563.23373,506.34262 562.65122,506.83372 562.53783,507.50305 C 562.34755,508.58411 561.25267,513.73573 560.17196,520.16187 C 560.15779,520.1399 560.14645,520.12147 560.12874,520.1034 C 559.85413,519.78451 559.45125,519.51734 559.03385,519.52832 C 555.69429,519.62329 552.02909,520.99313 549.3957,522.68825 L 549.56472,521.67769 C 549.64161,521.26384 549.52822,520.84643 549.2646,520.52435 C 549.00417,520.2058 548.60909,520.09206 548.19133,520.09206 L 540.90877,520.09206 C 540.23484,520.08852 539.64877,520.48785 539.51307,521.15399 L 539.31287,522.25632 L 531.52752,564.79691 C 531.45452,565.21076 531.58952,565.57324 531.86023,565.89533 C 532.13129,566.21387 532.55295,566.36411 532.97389,566.36057 L 539.94925,566.36057 C 540.61539,566.36057 541.17948,565.9212 541.31094,565.26958 L 546.65035,538.86911 C 548.41846,532.17935 552.85291,530.1912 556.77393,529.61258 C 556.97555,529.58317 557.77811,529.59415 557.94287,529.48785 C 555.24783,545.49651 552.07303,564.44187 552.02165,564.76041 C 551.9522,565.16683 552.06169,565.55128 552.32885,565.86628 C 552.59637,566.18092 552.98437,566.36057 553.39858,566.36057 L 561.23425,566.36057 C 561.85007,566.36057 562.39149,565.99065 562.57433,565.40494 C 562.81633,564.63604 564.86259,553.76836 565.99007,547.22848 C 568.88673,551.63352 577.37472,565.74899 577.37472,565.74899 C 577.63055,566.14053 578.07381,566.36411 578.54649,566.36411 L 587.28287,566.37155 C 587.45543,566.37155 587.61665,566.17738 587.77007,566.12246 C 587.96814,566.22132 588.18358,566.37155 588.40751,566.37155 L 597.5209,566.37155 C 598.19873,566.36411 598.7731,565.89533 598.89003,565.22919 C 598.89039,565.22919 605.03094,532.12053 605.40795,529.9421 C 607.25366,529.94175 614.1631,529.93077 614.1631,529.93077 C 614.84448,529.93077 615.42665,529.44037 615.54393,528.77033 L 616.76991,521.69577 C 616.7848,521.61533 616.78869,521.5349 616.78869,521.45801 C 616.78905,521.12848 616.67531,520.80604 616.45846,520.55376 z "
         style="fill:white;fill-rule:evenodd"
         id="_46968816" />
    </g>
  </g>
</svg>
